<svg width="197" height="29" viewBox="0 0 197 29" fill="none" xmlns="http://www.w3.org/2000/svg">
<g clip-path="url(#clip0_1160_782)">
<path d="M15.7514 23.8739C13.053 23.8739 10.7936 22.7134 9.0643 20.4298C7.32961 18.109 6.4462 15.0642 6.4462 11.2582C6.4462 5.73289 8.13806 2.0866 11.5646 0.324671V0.239502C8.66275 0.761161 6.00717 2.20371 3.70496 4.44472C1.45093 6.69104 0 10.332 0 14.5425C0 19.1896 1.89531 23.1925 4.51341 25.4761C7.13151 27.7171 10.194 29 13.053 29C18.3321 29 21.6355 25.5134 23.9323 19.2641H23.852C21.6355 22.3515 18.9371 23.8739 15.7514 23.8739Z" fill="#006345"/>
<path d="M22.9259 9.77313H23.0062L22.444 0.159692C21.9996 0.276799 21.3572 0.361968 20.5487 0.361968C19.8634 0.361968 18.8569 0.319383 17.5291 0.202276C16.1959 0.0798458 15.0288 0 13.9419 0V0.0798458C17.2025 1.55966 20.1846 4.76946 22.9259 9.77313Z" fill="#006345"/>
<path d="M42.9497 23.6343V8.49023H35.4541V8.57008C36.9479 9.41112 37.2263 10.8111 37.2263 13.3768V28.5156H45.0859V28.4357C43.2763 27.4776 42.9497 26.2 42.9497 23.6343Z" fill="#006345"/>
<path d="M32.5147 25.0769V8.49023H24.6604V8.57008C26.5557 9.53355 26.7966 10.8111 26.7966 13.3768V25.4335C26.636 28.4357 29.6557 29.9209 34.8544 27.7171V27.6373C33.2803 27.6 32.5147 26.9985 32.5147 25.0769Z" fill="#006345"/>
<path d="M53.7539 23.6344V0.479126H45.8943V0.558972C47.7896 1.52244 48.0305 2.79998 48.0305 5.36569V23.6344C48.0305 26.2001 47.7896 27.4777 45.8943 28.4411V28.521H55.8848V28.4411C53.9949 27.4777 53.7539 26.2001 53.7539 23.6344Z" fill="#006345"/>
<path d="M65.3188 25.8381C64.7941 24.9172 64.5157 23.5971 64.5157 21.8352V9.05455H68.06V8.49563H64.5157V1.76196H64.4353C63.5091 3.64632 62.2616 5.20598 60.7304 6.53142C59.2366 7.85154 57.8285 8.53289 56.5007 8.57547V9.05455H58.7976V21.1538V21.2763C58.7976 22.7987 58.8404 23.9218 58.9582 24.6032C59.076 25.2845 59.4829 26.0032 60.0879 26.8069C61.3354 28.4092 64.1944 28.8084 69.2325 28.5316V28.4518C67.1712 27.6001 65.8381 26.7164 65.3188 25.8381Z" fill="#006345"/>
<path d="M69.5483 0.479126V0.558972C71.0421 1.08063 72.6911 3.36422 74.5061 7.40974L83.8542 28.521H83.9345L87.1148 20.9889L78.2111 0.479126H69.5483Z" fill="#006345"/>
<path d="M94.4069 23.6344C94.4069 25.7583 93.2772 27.6001 91.3872 28.4411V28.521H103.717V28.4411C101.902 27.6001 100.735 25.7583 100.735 23.6344V5.36569C100.735 3.24179 101.902 1.40001 103.717 0.558972V0.479126H94.4122V23.6344H94.4069Z" fill="#006345"/>
<path d="M73.0123 22.3516H72.8892C72.8517 25.3538 71.4811 27.6001 69.543 28.4411V28.521H76.637V28.4411C74.5061 27.6001 73.0552 25.3963 73.0123 22.3516Z" fill="#006345"/>
<path d="M114.072 8.1709V8.25074C115.159 9.57086 115.844 12.8552 115.967 16.2619H111.417V16.8209H121.246C121.129 14.2977 120.358 12.2963 119.03 10.7313C117.697 9.17163 116.048 8.33059 114.072 8.1709Z" fill="#006345"/>
<path d="M115.485 24.3956C113.831 24.3956 112.385 23.7142 111.133 22.3941C109.885 21.0314 109.237 18.9874 109.237 16.2247C109.237 12.259 110.367 9.53363 111.652 8.41578V8.33594C109.559 8.77775 107.786 9.89559 106.293 11.6628C104.842 13.4248 104.119 15.7084 104.119 18.5509C104.119 21.8778 105.008 24.4009 106.78 26.2001C108.552 28.0046 110.608 28.8829 112.905 28.8829C114.88 28.8829 116.529 28.2016 117.943 26.8016C119.351 25.4016 120.32 23.7568 120.925 21.8725L120.845 21.8352C119.067 23.5546 117.295 24.3956 115.485 24.3956Z" fill="#006345"/>
<path d="M142.437 23.6344V0.479126H134.583V0.558972C136.478 1.52244 136.719 2.79998 136.719 5.36569V23.6344C136.719 26.1629 136.478 27.4457 134.653 28.4039C132.65 27.5735 131.349 26.7058 130.835 25.8382C130.311 24.9173 130.027 23.5971 130.027 21.8352V9.05457H133.571V8.49565H130.027V1.76198H129.947C129.02 3.64634 127.773 5.206 126.242 6.53144C124.748 7.85156 123.34 8.53291 122.012 8.57549V9.05457H124.309V21.1539V21.2763C124.309 22.7987 124.352 23.9219 124.469 24.6032C124.587 25.2846 124.994 26.0032 125.599 26.807C126.847 28.4092 129.711 28.8084 134.744 28.5316H144.215V28.4518C142.721 27.6001 142.437 26.2001 142.437 23.6344Z" fill="#006345"/>
<path d="M152.915 23.6344V11.5777C153.076 8.5755 150.056 7.09036 144.857 9.29411V9.37396C146.351 9.25153 147.192 10.1352 147.192 11.9397V23.6344C147.192 26.0777 146.828 27.6001 145.382 28.4411V28.521H155.051V28.4411C153.156 27.4777 152.915 26.2001 152.915 23.6344Z" fill="#006345"/>
<path d="M165.733 8.13367V8.21351C166.943 9.25683 167.869 10.9389 168.511 13.3024C169.197 15.6658 169.518 18.1517 169.518 20.7546C169.518 24.1614 168.993 26.8016 167.949 28.6061V28.686C170.085 28.1643 171.858 27.0465 173.309 25.2792C174.759 23.4747 175.482 21.2337 175.482 18.5083C175.482 11.4978 169.839 8.13367 165.733 8.13367Z" fill="#006345"/>
<path d="M161.862 16.544C161.862 13.1373 162.386 10.4545 163.393 8.49025V8.4104C161.257 8.93206 159.447 10.0925 157.996 11.8544C156.588 13.6163 155.86 15.8574 155.86 18.5828C155.86 21.9469 157.23 24.832 159.206 26.4343C161.182 28.0365 163.479 28.9574 165.615 28.9574V28.8775C164.448 27.797 163.521 26.1149 162.836 23.8313C162.183 21.553 161.862 19.1044 161.862 16.544Z" fill="#006345"/>
<path d="M194.864 23.6344V0.479126H187.01V0.558972C188.905 1.52244 189.146 2.79998 189.146 5.36569V28.521H197.005V28.4411C195.105 27.4777 194.864 26.2001 194.864 23.6344Z" fill="#006345"/>
<path d="M177.619 19.1045C177.619 25.0344 181.083 28.159 186.726 28.5156V28.4358C185.8 27.2754 184.991 25.5507 184.391 23.2671C183.786 20.9835 183.465 18.6999 183.465 16.4163C183.465 12.0514 184.552 9.40587 186.726 8.56483V8.48499C184.188 8.84695 182.014 9.92753 180.242 11.732C178.507 13.4993 177.619 15.9426 177.619 19.1045Z" fill="#006345"/>
</g>
<defs>
<clipPath id="clip0_1160_782">
<rect width="197" height="29" fill="white"/>
</clipPath>
</defs>
</svg>
