<svg width="258" height="58" viewBox="0 0 258 58" fill="currentColor" xmlns="http://www.w3.org/2000/svg"{% if include.class %} class="{{ include.class }}"{% endif %}><path d="M69.3577 14.5031H29.7265L39.6312 0H0L19.8156 29L29.7265 14.5031L39.6312 29H19.8156H0L19.8156 58L39.6312 29L49.5421 43.5031L69.3577 14.5031Z"/><path d="M101.3 18.6619H105.601L95.1249 41.5752H91.7861L81.1243 18.6619H85.7911L93.5672 36.0199L101.3 18.6619ZM126.055 18.6619H130.22V41.1673H126.055V37.2928C125.416 38.4298 123.219 41.7111 118.05 41.7111C112.104 41.7111 107.022 37.3361 107.022 29.9146C107.022 22.6229 112.098 18.1181 118.05 18.1181C123.033 18.1181 125.46 21.1707 126.055 22.4004V18.6619ZM126.142 29.9146C126.142 25.4036 123.213 21.9432 118.819 21.9432C114.245 21.9432 111.316 25.4036 111.316 29.9146C111.316 34.4256 114.245 37.8861 118.819 37.8861C123.219 37.8861 126.142 34.4256 126.142 29.9146ZM135.706 41.1673H139.87V7.63782H135.706V41.1673ZM168.374 29.9146C168.374 36.6131 163.204 41.7111 156.477 41.7111C149.706 41.7111 144.58 36.6069 144.58 29.9146C144.58 23.2223 149.706 18.1181 156.477 18.1181C163.204 18.1119 168.374 23.2161 168.374 29.9146ZM164.073 29.9146C164.073 25.4036 161.007 21.9432 156.477 21.9432C151.947 21.9432 148.881 25.4963 148.881 29.9146C148.881 34.3329 151.947 37.8861 156.477 37.8861C161.007 37.8861 164.073 34.4256 164.073 29.9146ZM177.155 22.8083V18.6619H172.991V41.1673H177.155V28.4563C177.155 24.4458 179.122 22.6229 184.931 22.6229H190.697V18.4765H185.024C179.718 18.4765 177.801 21.1646 177.155 22.8083ZM215.316 30.4151H196.512C196.741 34.6048 199.757 37.8861 204.201 37.8861C208.731 37.8861 210.562 35.4699 210.928 34.7407H215.049C214.683 36.6996 211.803 41.7111 204.207 41.7111C197.207 41.7111 192.31 36.5204 192.31 29.9146C192.31 23.1296 197.207 18.1181 203.791 18.1181C210.419 18.1119 215.316 23.0369 215.316 30.4151ZM210.692 26.9547C209.637 23.5375 207.217 21.6713 203.785 21.6713C200.123 21.6713 197.653 23.6734 196.785 26.9547H210.692V26.9547ZM248.35 18.1614C243.546 18.1614 240.983 21.4426 240.021 23.6301C238.557 20.3056 235.491 18.1614 231.463 18.1614C227.299 18.1614 224.736 20.9854 223.867 22.8083V18.6619H219.703V41.1673H223.867V29.0001C223.867 24.9464 226.474 21.9864 230.458 21.9864C234.3 21.9864 236.726 24.8104 236.726 29.0001V41.1612H240.934V29.0001C240.934 24.9464 243.54 21.9864 247.524 21.9864C251.366 21.9864 253.792 24.8104 253.792 29.0001V41.1612H258V28.2276C258 22.3943 254.065 18.1614 248.35 18.1614Z"/></svg>