<svg width="24" height="20" viewBox="0 0 24 20" fill="currentColor" xmlns="http://www.w3.org/2000/svg"{% if include.class %} class="{{include.class}}"{% endif %}>
<path d="M20.317 2.19197C18.7873 1.47467 17.147 0.946193 15.4319 0.643512C15.4007 0.63767 15.3695 0.652269 15.3534 0.681467C15.1424 1.06493 14.9087 1.56518 14.7451 1.95837C12.9004 1.67614 11.0652 1.67614 9.25832 1.95837C9.09465 1.55644 8.85248 1.06493 8.64057 0.681467C8.62449 0.653243 8.59328 0.638645 8.56205 0.643512C6.84791 0.945225 5.20756 1.4737 3.67693 2.19197C3.66368 2.19781 3.65233 2.20755 3.64479 2.22019C0.533392 6.97068 -0.31895 11.6044 0.0991801 16.1807C0.101072 16.2031 0.11337 16.2245 0.130398 16.2381C2.18321 17.7787 4.17171 18.7141 6.12328 19.334C6.15451 19.3438 6.18761 19.3321 6.20748 19.3058C6.66913 18.6615 7.08064 17.9822 7.43348 17.2678C7.4543 17.2259 7.43442 17.1763 7.39186 17.1598C6.73913 16.9067 6.1176 16.5982 5.51973 16.2478C5.47244 16.2196 5.46865 16.1505 5.51216 16.1174C5.63797 16.021 5.76382 15.9208 5.88396 15.8196C5.90569 15.8011 5.93598 15.7972 5.96153 15.8089C9.88928 17.6415 14.1415 17.6415 18.023 15.8089C18.0485 15.7962 18.0788 15.8001 18.1015 15.8186C18.2216 15.9198 18.3475 16.021 18.4742 16.1174C18.5177 16.1505 18.5149 16.2196 18.4676 16.2478C17.8697 16.605 17.2482 16.9067 16.5945 17.1588C16.552 17.1753 16.533 17.2259 16.5538 17.2678C16.9143 17.9812 17.3258 18.6605 17.7789 19.3048C17.7978 19.3321 17.8319 19.3438 17.8631 19.334C19.8241 18.7141 21.8126 17.7787 23.8654 16.2381C23.8834 16.2245 23.8948 16.204 23.8967 16.1816C24.3971 10.891 23.0585 6.29525 20.3482 2.22116C20.3416 2.20755 20.3303 2.19781 20.317 2.19197ZM8.02002 13.3942C6.8375 13.3942 5.86313 12.2847 5.86313 10.9221C5.86313 9.55955 6.8186 8.45005 8.02002 8.45005C9.23087 8.45005 10.1958 9.56929 10.1769 10.9221C10.1769 12.2847 9.22141 13.3942 8.02002 13.3942ZM15.9947 13.3942C14.8123 13.3942 13.8379 12.2847 13.8379 10.9221C13.8379 9.55955 14.7933 8.45005 15.9947 8.45005C17.2056 8.45005 18.1705 9.56929 18.1516 10.9221C18.1516 12.2847 17.2056 13.3942 15.9947 13.3942Z"/>
</svg>