<svg width="121" height="51" viewBox="0 0 121 51" fill="none" xmlns="http://www.w3.org/2000/svg">
<path d="M12.5905 14.9099H4.71511L3.25039 18.6601C3.07984 19.0734 2.96948 19.4665 2.96948 19.769C2.96948 20.6259 3.60152 20.9384 5.4876 20.9888V21.7348H0.0400391V20.9888C0.812529 20.8779 1.3944 20.7065 1.67531 19.9605L8.02578 3.83084L7.25329 1.99609H10.0122L17.3659 19.9605C17.6669 20.7065 18.2487 20.8779 19.0012 20.9888V21.7348H11.9284V20.9888C13.7843 20.9283 14.4164 20.6561 14.4164 19.7891C14.4164 19.4565 14.306 19.0935 14.1355 18.6802L12.5905 14.9099ZM5.04618 14.0228H12.2293L8.58759 5.00024L5.04618 14.0228Z" fill="#177466"/>
<path d="M24.0577 19.6278C24.0577 20.7065 24.4992 20.9282 25.9639 21.019V21.7347H19.6636V21.019C21.1283 20.9383 21.5697 20.7165 21.5697 19.6278V2.6614L19.7739 1.69362V1.39118L23.7267 0H24.0577V19.6278V19.6278Z" fill="#177466"/>
<path d="M33.8693 20.0411C35.6952 20.0411 36.9593 19.1842 37.9023 17.7325L38.2334 17.8938C37.4007 20.5048 35.6049 22.0069 33.0668 22.0069C29.5053 22.0069 27.0474 19.2043 27.0474 15.0106C27.0474 10.454 29.6156 7.01636 33.7389 7.01636C36.3373 7.01636 37.8522 8.15552 37.8522 9.96002C37.8522 10.6859 37.5211 11.3512 36.9693 11.6536H35.3943C35.4444 11.3512 35.5046 11.0185 35.5046 10.4842C35.5046 9.15354 35.0331 7.87325 33.2373 7.87325C30.7493 7.87325 29.2545 10.4842 29.2545 13.7908C29.2545 17.5208 31.0202 20.0411 33.8693 20.0411Z" fill="#177466"/>
<path d="M43.5104 19.6278C43.5104 20.7065 43.9518 20.9283 45.4165 21.019V21.7347H39.1162V21.019C40.5809 20.9383 41.0224 20.7166 41.0224 19.6278V9.68789L39.2266 8.72011V8.41768L43.1793 7.0265H43.5104V19.6278ZM40.3903 3.08481C40.3903 2.11703 41.1628 1.31055 42.1359 1.31055C43.1291 1.31055 43.9016 2.11703 43.9016 3.08481C43.9016 4.05259 43.1291 4.85907 42.1359 4.85907C41.1628 4.85907 40.3903 4.05259 40.3903 3.08481Z" fill="#177466"/>
<path d="M45.8379 1.69362V1.39118L49.7906 0H50.1217V9.49634C51.1952 8.02451 52.69 7.02649 54.7667 7.02649C58.2479 7.02649 60.2142 9.68788 60.2142 13.6901C60.2142 18.8314 57.1243 22.017 53.2819 22.017C50.9644 22.017 48.9981 21.2408 47.6437 20.021V2.6614L45.8379 1.69362ZM57.7162 14.8292C57.7162 11.694 56.5524 8.63945 53.4023 8.63945C52.1583 8.63945 50.8842 9.2544 50.1117 10.1415V17.7729C50.1117 20.2427 51.2955 21.271 53.2618 21.271C55.9806 21.271 57.7162 18.408 57.7162 14.8292Z" fill="#177466"/>
<path d="M65.8424 19.6278C65.8424 20.7065 66.2838 20.9283 67.7485 21.019V21.7347H61.4482V21.019C62.913 20.9383 63.3544 20.7166 63.3544 19.6278V9.68789L61.5586 8.72011V8.41768L65.5113 7.0265H65.8424V19.6278ZM62.7223 3.08481C62.7223 2.11703 63.4948 1.31055 64.468 1.31055C65.4612 1.31055 66.2337 2.11703 66.2337 3.08481C66.2337 4.05259 65.4612 4.85907 64.468 4.85907C63.4948 4.85907 62.7223 4.05259 62.7223 3.08481Z" fill="#177466"/>
<path d="M79.406 18.66C79.406 19.8798 79.6869 20.4948 80.4795 20.4948C80.9209 20.4948 81.3322 20.3234 81.7536 20.1318L81.894 20.5452C81.2319 21.5432 80.2888 22.017 79.2455 22.017C77.8911 22.017 77.0885 21.0492 76.9481 19.4867C75.985 20.6258 74.43 22.017 72.5038 22.017C70.3468 22.017 68.9924 20.6057 68.9924 18.5491C68.9924 16.2204 70.7381 15.2425 72.9151 14.4159L76.8979 12.9138V11.0287C76.8979 9.11326 76.1756 7.72208 74.3597 7.72208C72.7847 7.72208 72.1225 8.78059 72.1225 10.1919C72.1225 10.6657 72.1827 11.0791 72.3131 11.6335L70.8484 11.8553C70.1562 11.6335 69.775 11.1093 69.775 10.3331C69.775 8.2463 71.9319 7.02649 74.7209 7.02649C77.8711 7.02649 79.416 8.38743 79.416 11.3009V18.66H79.406ZM76.8979 18.912V13.6901L73.5872 15.051C72.2028 15.6055 71.4002 16.3817 71.4002 17.8535C71.4002 19.3556 72.2329 20.3839 73.808 20.3839C74.9316 20.3738 75.7643 19.8496 76.8979 18.912Z" fill="#177466"/>
<path d="M90.6019 1.69362V1.39118L94.5547 0H94.8857V19.0431C94.8857 19.9907 94.9459 20.1822 96.1799 20.3234L96.9022 20.404V20.9887L92.6987 22.017H92.2873L92.3977 19.4665C91.2941 20.9081 89.9699 22.017 87.9734 22.017C84.5424 22.017 82.4155 19.1338 82.4155 15.2123C82.4155 10.1617 85.3149 7.02649 89.1573 7.02649C90.5718 7.02649 91.6754 7.47005 92.3877 8.1354V2.6614L90.6019 1.69362ZM84.7731 14.1034C84.7731 17.4906 86.288 20.1822 89.2174 20.1822C90.5417 20.1822 91.5951 19.7084 92.3977 18.8213V11.8755C92.3977 9.34513 91.0433 7.79265 89.1673 7.79265C86.4887 7.80273 84.7731 10.3331 84.7731 14.1034Z" fill="#177466"/>
<path d="M109.312 12.5207V13.1054H100.143C99.9521 17.6015 102.159 20.152 105.028 20.152C107.015 20.152 108.209 19.2044 109.172 17.6822L109.503 17.8535C108.841 20.273 106.935 22.017 104.055 22.017C100.133 22.017 97.8955 18.8213 97.8955 14.9401C97.8955 10.3835 100.544 7.02649 104.116 7.02649C107.517 7.02649 109.312 9.4157 109.312 12.5207ZM100.223 12.2989H106.915C106.915 9.79878 106.062 7.91362 103.905 7.91362C101.768 7.91362 100.494 9.82902 100.223 12.2989Z" fill="#177466"/>
<path d="M111.329 20.6561L111.158 16.8253H111.901C112.593 19.3556 113.917 21.2408 116.074 21.2408C117.709 21.2408 118.973 20.404 118.973 18.66C118.973 17.047 117.95 16.3515 115.492 15.3837C112.733 14.305 111.379 13.2767 111.379 10.9379C111.379 8.54873 113.175 7.02649 115.934 7.02649C117.649 7.02649 119.003 7.47006 120.137 8.19589V11.5529H119.475C118.923 9.4157 117.82 7.80273 115.803 7.80273C114.198 7.80273 113.345 8.77051 113.345 10.1113C113.345 11.5529 114.228 12.309 116.686 13.2162C119.335 14.2143 121 15.3534 121 17.7426C121 20.404 119.014 22.017 115.974 22.017C114.088 22.017 112.352 21.4625 111.329 20.6561Z" fill="#177466"/>
<path d="M9.95208 25.8679C15.8611 25.8679 19.0614 29.6181 19.4126 34.5578L14.898 34.7493C14.6171 32.2492 13.1825 30.0616 9.92198 30.0616C6.78186 30.0616 4.85565 32.4004 4.85565 36.0901C4.85565 39.7798 6.78186 42.1186 9.92198 42.1186C13.1925 42.1186 14.6171 39.931 14.898 37.4309L19.4126 37.6224C19.0715 42.5621 15.8712 46.3123 9.95208 46.3123C4.29384 46.3123 0 42.1488 0 36.0901C0 30.0213 4.29384 25.8679 9.95208 25.8679Z" fill="#177466"/>
<path d="M34.06 42.1489C34.06 42.8646 34.371 43.1772 34.9328 43.1772C35.3341 43.1772 35.6752 43.1167 36.0865 42.9251V45.3345C35.4043 45.8385 34.5315 46.2418 33.1671 46.2418C31.5218 46.2418 30.3079 45.3647 29.8966 43.8022C29.114 45.395 27.4085 46.2418 25.2616 46.2418C22.4927 46.2418 20.7471 44.8405 20.7471 42.4614C20.7471 39.8101 22.7335 38.681 25.7833 38.0862L29.6357 37.4007V37.1487C29.6357 35.8382 28.9836 35.0518 27.6092 35.0518C26.305 35.0518 25.6529 35.8583 25.4021 37.0176L21.2286 36.7051C21.7001 33.7312 23.9073 31.6747 27.85 31.6747C31.4616 31.6747 34.0399 33.2977 34.0399 37.0882V42.1489H34.06ZM29.6357 39.7798L27.3684 40.2436C25.9639 40.5258 25.1011 40.8686 25.1011 41.9674C25.1011 42.784 25.7231 43.278 26.6862 43.278C28.3315 43.278 29.6458 42.0279 29.6458 40.0621V39.7798H29.6357Z" fill="#177466"/>
<path d="M42.1458 51.0001H37.6714V32.0578H42.1458V34.5579C42.828 32.9046 44.4131 31.6848 46.8108 31.6848C50.8539 31.6848 52.9707 34.9309 52.9707 39.0037C52.9707 43.0966 50.8539 46.3225 46.8108 46.3225C44.4131 46.3225 42.828 45.1027 42.1458 43.4796V51.0001ZM42.1458 39.1549C42.1458 41.4029 43.4199 42.8143 45.2859 42.8143C47.4028 42.8143 48.4261 41.282 48.4261 39.0037C48.4261 36.7556 47.4028 35.2233 45.2859 35.2233C43.4199 35.2233 42.1458 36.6245 42.1458 38.8524V39.1549Z" fill="#177466"/>
<path d="M55.0776 26.241H59.6524V30.3641H55.0776V26.241ZM59.5922 32.0577V45.9393H55.1178V32.0577H59.5922Z" fill="#177466"/>
<path d="M63.0131 35.213H61.0869V32.4609L62.0801 32.3097C63.4445 32.0577 63.8558 31.3419 64.1969 30.0616L64.6584 28.2168H67.4273V32.0577H71.0992V35.213H67.4273V40.9996C67.4273 42.1891 67.9892 42.6831 69.0426 42.6831C69.7248 42.6831 70.4371 42.4916 71.2798 42.1186V45.0925C70.2565 45.8687 69.0727 46.3123 67.2668 46.3123C65.0296 46.3123 63.0031 45.3445 63.0031 42.2194V35.213H63.0131Z" fill="#177466"/>
<path d="M85.8366 42.1489C85.8366 42.8646 86.1476 43.1772 86.7094 43.1772C87.1107 43.1772 87.4518 43.1167 87.8631 42.9251V45.3345C87.1809 45.8385 86.3081 46.2418 84.9337 46.2418C83.2884 46.2418 82.0745 45.3647 81.6632 43.8022C80.8907 45.395 79.1751 46.2418 77.0282 46.2418C74.2593 46.2418 72.5137 44.8405 72.5137 42.4614C72.5137 39.8101 74.5001 38.681 77.5499 38.0862L81.4023 37.4007V37.1487C81.4023 35.8382 80.7502 35.0518 79.3858 35.0518C78.0816 35.0518 77.4295 35.8583 77.1787 37.0176L73.0153 36.7051C73.4768 33.7312 75.6939 31.6747 79.6366 31.6747C83.2483 31.6747 85.8266 33.2977 85.8266 37.0882V42.1489H85.8366ZM81.4224 39.7798L79.1551 40.2436C77.7506 40.5258 76.8878 40.8686 76.8878 41.9674C76.8878 42.784 77.5098 43.278 78.4729 43.278C80.1182 43.278 81.4324 42.0279 81.4324 40.0621V39.7798H81.4224Z" fill="#177466"/>
<path d="M93.9227 26.241V45.9292H89.4482V26.241H93.9227Z" fill="#177466"/>
</svg>
